<svg width="1200" height="480" viewBox="0 0 1200 480" fill="none" xmlns="http://www.w3.org/2000/svg">
<path d="M295.947 143.712L175.575 74.1224C166.066 68.6259 154.271 68.6259 144.795 74.1224L24.3897 143.712C14.8814 149.209 9 159.45 9 170.41V309.59C9 320.583 14.9141 330.791 24.3897 336.288L144.763 405.878C149.5 408.626 154.826 410 160.152 410C165.478 410 170.804 408.626 175.542 405.878L295.915 336.288C305.423 330.791 311.304 320.55 311.304 309.59V170.41C311.304 159.417 305.39 149.209 295.915 143.712H295.947ZM30.1077 153.626L150.481 84.0358C153.454 82.3018 156.819 81.4511 160.152 81.4511C163.485 81.4511 166.851 82.3018 169.824 84.0358L290.197 153.626C296.176 157.061 299.868 163.507 299.868 170.41V218.177C289.184 219.977 282.355 225.735 276.212 230.97C270.755 235.649 266.05 239.673 259.613 239.673C254.059 239.673 249.746 238.037 245.171 236.336C240.074 234.405 234.291 232.246 226.253 232.246C208.641 232.246 201.682 247.918 195.506 261.724C189.69 274.811 184.201 287.146 171.033 287.146C169.562 287.146 168.19 287.015 166.818 286.884C140.417 283.809 131.497 251.713 122.086 217.818C112.349 182.777 102.286 146.526 70.232 146.526C52.6205 146.526 38.407 154.804 20.3707 170.214C20.4361 163.376 24.1283 157.028 30.0424 153.626H30.1077ZM276.343 261.135C270.886 265.421 266.148 269.119 259.646 269.119C254.091 269.119 249.778 267.483 245.204 265.781C240.107 263.851 234.323 261.692 226.285 261.692C214.621 261.692 207.89 266.599 201.943 271.998C201.943 271.998 201.976 271.932 202.008 271.9C208.314 262.477 213.771 254.33 226.318 254.33C233.31 254.33 238.114 256.13 243.243 258.06C248.079 259.892 253.079 261.757 259.679 261.757C268.207 261.757 273.925 256.85 280.002 251.68C285.557 246.936 291.308 242.094 299.934 240.36V249.423C289.315 251.059 282.486 256.326 276.375 261.135H276.343ZM299.901 255.246V263.884C289.347 265.421 282.518 270.296 276.441 274.746C270.951 278.738 266.246 282.206 259.679 282.206C254.124 282.206 249.811 280.57 245.237 278.868C240.139 276.938 234.356 274.779 226.318 274.779C216.222 274.779 209.131 277.592 201.649 280.537C201.355 280.635 201.061 280.766 200.799 280.864C201.649 280.079 202.466 279.326 203.283 278.574C209.687 272.587 215.209 267.417 226.318 267.417C233.31 267.417 238.114 269.217 243.243 271.147C248.079 272.979 253.079 274.844 259.679 274.844C268.141 274.844 273.859 270.362 279.904 265.65C285.492 261.266 291.242 256.849 299.934 255.246H299.901ZM276.245 247.329C270.788 252.007 266.083 256.032 259.646 256.032C254.091 256.032 249.778 254.396 245.204 252.694C240.107 250.764 234.323 248.605 226.285 248.605C213.902 248.605 206.844 255.344 201.322 262.837C207.105 249.881 212.824 237.972 226.285 237.972C233.278 237.972 238.081 239.771 243.211 241.701C248.047 243.533 253.046 245.398 259.646 245.398C268.174 245.398 273.892 240.491 279.97 235.321C285.524 230.577 291.275 225.735 299.901 224.001V234.536C289.217 236.336 282.388 242.094 276.245 247.329ZM20.4361 177.804C39.2566 161.216 53.2739 152.252 70.2974 152.252C94.6399 152.252 104.573 177.411 113.134 206.89C104.377 186.245 92.7447 169.428 70.2974 169.428C52.6858 169.428 38.4724 177.706 20.4361 193.116V177.804ZM112.807 221.776C103.495 203.913 91.7972 189.059 70.33 189.059C52.6858 189.059 37.6555 198.874 20.4687 215.233V200.706C39.2893 184.119 53.3066 175.154 70.33 175.154C93.627 175.154 103.723 196.78 112.807 221.776ZM20.4361 223.183C38.6684 205.123 53.1106 194.784 70.2974 194.784C91.1437 194.784 101.567 211.274 110.944 230.872C101.665 218.374 89.8694 208.689 70.2974 208.689C52.8819 208.689 38.6031 217.883 20.4361 234.994V223.216V223.183ZM290.229 326.374L169.857 395.964C163.877 399.4 156.46 399.4 150.513 395.964L30.1077 326.374C24.1283 322.939 20.4361 316.493 20.4361 309.59V242.912C39.8447 224.034 53.4046 214.415 70.2974 214.415C95.4894 214.415 106.207 232.639 117.545 251.909C128.915 271.18 140.678 291.072 167.439 292.741C168.615 292.839 169.824 292.904 171.066 292.904C172.176 292.904 173.255 292.871 174.3 292.806C187.37 292.315 196.061 288.913 203.74 285.87C210.994 282.991 217.267 280.504 226.285 280.504C233.278 280.504 238.081 282.304 243.211 284.234C248.047 286.066 253.046 287.931 259.646 287.931C268.076 287.931 273.761 283.776 279.774 279.392C285.361 275.302 291.144 271.18 299.868 269.707V309.623C299.868 316.526 296.143 322.972 290.197 326.407L290.229 326.374Z" fill="#26956D"/>
<path d="M382.144 194.98C389.038 194.98 396.03 195.864 403.644 197.565V214.022C397.141 212.452 390.77 211.437 384.79 211.437C368.486 211.503 364.892 219.093 364.892 240.032C364.892 260.972 368.453 268.529 384.562 268.562C390.606 268.562 397.403 267.515 403.644 266.01V282.434C396.847 283.907 389.888 284.986 382.144 284.986C352.279 284.986 345.516 268.464 345.516 240.065C345.516 211.666 352.508 194.98 382.144 194.98V194.98ZM463.438 263.262H435.665L429.685 283.481H410.178L439.291 196.485H443.735H455.4H459.844L488.957 283.481H469.45L463.471 263.262H463.438ZM458.798 247.557L449.551 216.214L440.304 247.557H458.798V247.557ZM525.944 249.291H516.632V283.481H497.91V196.453H512.58H529.506C550.091 196.453 561.004 203.323 560.971 222.856C560.971 236.957 555.351 244.449 544.503 247.557L564.5 283.481H543.915L525.977 249.291H525.944ZM516.632 234.438H527.774C538.459 234.438 542.02 232.082 541.987 222.954C542.02 213.728 538.393 211.339 527.774 211.339H516.632V234.438V234.438ZM638.737 259.663C638.737 278.083 627.791 283.481 608.121 283.481H574.008V196.453H606.585C625.307 196.453 635.763 202.047 635.763 219.584C635.763 230.217 631.973 235.616 624.85 238.233C633.868 241.112 638.737 247.394 638.737 259.63V259.663ZM619.361 257.634C619.361 249.488 616.257 246.216 605.409 246.216H592.731V268.628H605.409C616.191 268.628 619.361 265.945 619.361 257.634ZM603.481 211.306H592.731V231.886H603.481C613.447 231.886 616.453 229.923 616.453 221.612C616.453 213.302 613.414 211.306 603.481 211.306ZM722.841 240C722.841 268.595 716.012 285.019 685.494 285.019C654.976 285.019 648.147 268.595 648.147 240C648.147 211.405 654.943 194.98 685.494 194.98C716.044 194.98 722.841 211.405 722.841 240V240ZM667.523 240C667.523 260.579 670.79 268.529 685.494 268.529C700.197 268.529 703.465 260.546 703.465 240C703.465 219.453 700.197 211.437 685.494 211.437C670.79 211.437 667.523 219.42 667.523 240ZM803.285 196.485V283.514H779.727L752.182 223.837V283.514H734.473V196.485H756.822L785.543 258.649V196.485H803.253H803.285ZM883.959 240C883.959 268.628 877.653 283.481 849.389 283.481H830.111H820.08V196.453H820.407H849.389C877.62 196.453 883.959 211.339 883.959 239.967V240ZM873.536 240C873.536 213.564 869.19 204.796 849.095 204.796H830.144V275.204H849.095C869.19 275.204 873.536 266.468 873.536 240.032V240ZM911.078 283.481H901.047V196.453H911.078V283.481ZM956.921 246.151H940.028V283.481H929.997V196.453H938.166H959.045C978.453 196.453 988.615 202.898 988.615 221.285C988.615 236.663 981.525 243.697 967.834 245.594L989.726 283.481H978.094L956.921 246.151V246.151ZM940.028 237.873H958.914C973.487 237.873 978.192 234.438 978.192 221.318C978.192 208.198 973.454 204.763 958.914 204.763H940.028V237.873V237.873ZM1014.89 208.918V234.699H1052.89V243.042H1014.89V271.081C1014.89 273.339 1016.72 275.171 1018.97 275.171H1054.85V283.514H1017.89C1010.67 283.514 1004.82 277.658 1004.82 270.427V209.572C1004.82 202.342 1010.67 196.485 1017.89 196.485H1054.85V204.828H1018.97C1016.72 204.828 1014.89 206.661 1014.89 208.918ZM1101.51 194.98C1107.98 194.98 1114.61 195.864 1121.73 197.565V206.726C1114.9 205.09 1108.66 204.076 1102.13 204.076C1082.03 204.207 1077.49 213.858 1077.49 240C1077.49 266.141 1082.03 275.891 1101.86 275.891C1108.63 275.891 1115.46 274.778 1121.7 273.273V282.434C1114.97 284.005 1108.47 284.986 1101.47 284.986C1073.41 284.986 1067.07 268.464 1067.07 240C1067.07 211.536 1073.67 194.98 1101.47 194.98H1101.51ZM1190.97 204.828H1167.15V283.514H1157.12V204.828H1133.3V196.485H1167.18H1191V204.828H1190.97Z" fill="#333333"/>
</svg>
